<?xml version="1.0" encoding="UTF-8"?>
<svg width="202px" height="320px" viewBox="0 0 202 320" version="1.1" xmlns="http://www.w3.org/2000/svg" xmlns:xlink="http://www.w3.org/1999/xlink">
    <title>Path</title>
    <g id="Page-1" stroke="none" stroke-width="1" fill="none" fill-rule="evenodd">
        <path d="M0,26.4989977 C0.68501028,23.3006296 4.44749897,21.1119809 9.82054068,18.0533158 C15.1935824,14.9946506 25.0597586,12.7439378 31.3246983,12.2034709 C35.5013247,11.8431595 38.9523548,11.5908113 41.6777885,11.4464262 C53.6259859,3.81547541 64.7336624,0 75.0008181,0 C90.4015515,0 101.910946,8.19213599 106.594897,12.2034709 C111.278848,16.2148057 130.734695,33.5878925 136.047649,42.0284624 C141.360603,50.4690323 142.773011,53.7545985 147.020894,62.1562009 C151.268776,70.5578033 158.823886,78.5889693 165.404693,83.0429843 C171.9855,87.4969992 181.173509,92.9981984 185.381559,100.306913 C189.589609,107.615627 191.231492,108.12 196.801166,127.69139 C200.514282,140.738984 202.001505,153.322011 201.262836,165.44047 C201.342184,172.254562 201.123898,177.929274 200.607976,182.464608 C200.400497,184.288505 199.501973,183.141668 199.443696,184.274085 C199.284606,187.3655 199.803439,189.75586 197.825904,195.653667 C195.123978,203.7119 193.287379,202.861772 190.448559,210.185441 C187.60974,217.50911 187.505054,219.140561 183.915958,225.960545 C180.326863,232.780528 178.995529,231.403025 176.094541,234.634066 C173.193552,237.865106 172.317351,239.540193 172.317351,241.973495 C172.317351,244.406798 181.143765,276.371601 183.915958,284.789775 C186.688152,293.207949 194.551195,305.175236 195.64143,309.434386 C196.731664,313.693537 194.000792,317.022904 190.448559,318.605818 C188.080404,319.661094 182.036668,319.863301 172.317351,319.212438 L148.436704,315.83146 L140.270183,313.532095 C133.411269,316.914577 126.768275,318.808025 120.341203,319.212438 C117.314806,319.402869 109.033822,319.691355 103.153661,318.605818 C99.5834928,317.946729 95.093318,316.255488 89.683137,313.532095 L81.1787245,313.532095 C76.2185378,310.602529 73.7384445,307.925326 73.7384445,305.500487 C73.7384445,303.075647 74.8255899,298.5709 76.9998807,291.986244 L85.6284471,264.58848 C86.0851747,259.388941 86.0851747,256.414759 85.6284471,255.665936 C85.1717195,254.917113 83.6884786,255.7697 81.1787245,258.223698 C80.371189,259.344983 78.476102,262.193009 75.4934637,266.767777 C71.0195062,273.629929 70.5342031,275.236896 72.1711899,277.324739 C73.8081767,279.412581 74.2700449,280.974057 74.2700449,282.278917 C74.2700449,283.148824 74.0928448,284.928319 73.7384445,287.617402 C72.3874599,287.921796 71.5437049,287.921796 71.2071793,287.617402 C70.7023909,287.16081 69.9748854,285.487486 69.0453558,285.487486 C67.9048981,285.487486 67.080284,285.996128 66.5715136,287.013413 C64.9448155,287.013413 63.9619802,287.013413 63.6230077,287.013413 C62.4610558,285.487486 61.9564609,284.289955 58.5203023,284.289955 C55.0841437,284.289955 48.3146092,287.005648 46.6762739,287.617402 C45.5840504,288.025237 43.6096348,288.174329 40.7530272,288.064675 C41.8638444,285.881409 43.83826,284.47756 46.6762739,283.853129 C50.9332948,282.916484 56.2415777,282.278917 61.3372239,277.324739 C66.43287,272.37056 70.2623102,266.170955 72.1711899,262.83793 C74.0800696,259.504905 77.8063881,254.228717 78.5886093,250.851719 C79.3708304,247.474721 78.1320851,243.10365 76.9998807,240.149902 C76.2450778,238.180737 75.7429388,233.833103 75.4934637,227.107001 C72.1884989,221.390028 70.0391296,217.310052 69.0453558,214.867071 C67.554695,211.202601 66.5715136,209.791756 65.9909612,207.037238 C65.6039263,205.200893 65.2365631,202.583512 64.8888717,199.185097 C61.4523585,196.198903 59.3295021,193.753486 58.5203023,191.848847 C57.7111026,189.944207 56.2550307,183.364708 54.1520866,172.110348 C52.8193855,168.717905 51.8794458,166.758148 51.3322674,166.231077 C50.785089,165.704006 50.2862461,166.830146 49.8357386,169.609499 C48.3700948,168.513072 47.3169399,167.386931 46.6762739,166.231077 C45.715275,164.497295 45.9495498,162.740018 45.9495498,160.834628 C45.9495498,159.564368 46.1917912,155.651988 46.6762739,149.097488 L51.3322674,129.846031 C54.6844629,119.678085 57.0804745,112.749309 58.5203023,109.059703 C59.9601302,105.370098 62.0829866,101.093042 64.8888717,96.2285356 L68.1604087,89.9731965 C69.7441472,83.8710924 70.0391296,79.255475 69.0453558,76.1263443 C68.051582,72.9972135 66.0716046,68.5521475 63.1054238,62.7911462 C60.3583424,58.7922601 58.0643698,55.7457719 56.2235061,53.6516815 C54.3826423,51.5575912 51.7858751,48.1460929 48.4332045,43.4171867 C46.3039217,40.6901965 44.0521163,38.530632 41.6777885,36.9384931 C38.1162967,34.5502846 26.7399885,31.9184585 21.6010104,30.7365072 C18.1750251,29.9485396 14.6929343,29.3407957 11.1547382,28.9132755 L4.52017641,28.2971288 C2.41802707,27.8536199 0.911301599,27.2542429 0,26.4989977 Z" id="Path" fill="#000000"></path>
    </g>
</svg>